<svg width="79" height="80" viewBox="0 0 79 80" fill="none" xmlns="http://www.w3.org/2000/svg">
<path d="M77.7229 40C77.2809 40.1919 76.7168 40.4407 76.0541 40.7411C74.3544 41.5115 72.0051 42.6219 69.4058 43.9819C64.2204 46.6951 57.9909 50.427 53.9589 54.4589C49.927 58.4909 46.1951 64.7204 43.4819 69.9058C42.1219 72.5051 41.0115 74.8544 40.241 76.5542C39.9407 77.2168 39.6919 77.7809 39.5 78.2229C39.3081 77.7809 39.0593 77.2168 38.7589 76.5542C37.9885 74.8544 36.8781 72.5051 35.5181 69.9058C32.8049 64.7204 29.073 58.4909 25.041 54.4589C21.0091 50.427 14.7796 46.6951 9.59422 43.9819C6.99494 42.6219 4.64558 41.5115 2.94584 40.7411C2.28323 40.4407 1.71912 40.1919 1.27713 40C1.71912 39.8081 2.28323 39.5593 2.94584 39.2589C4.64558 38.4885 6.99494 37.3781 9.59422 36.0181C14.7796 33.3049 21.0091 29.573 25.041 25.5411C29.073 21.5091 32.8049 15.2796 35.5181 10.0942C36.8781 7.49495 37.9885 5.14558 38.7589 3.44585C39.0593 2.78324 39.3081 2.21912 39.5 1.77714C39.6919 2.21912 39.9407 2.78324 40.241 3.44585C41.0115 5.14558 42.1219 7.49495 43.4819 10.0942C46.1951 15.2796 49.927 21.5091 53.9589 25.5411C57.9909 29.573 64.2204 33.3049 69.4058 36.0181C72.0051 37.3781 74.3544 38.4885 76.0541 39.2589C76.7168 39.5593 77.2809 39.8081 77.7229 40Z" stroke="black"/>
<circle cx="44.5" cy="45.5" r="2.5" fill="black"/>
<circle cx="34.5" cy="45.5" r="2.5" fill="black"/>
<circle cx="44.5" cy="35.5" r="2.5" fill="black"/>
<circle cx="34.5" cy="35.5" r="2.5" fill="black"/>
</svg>
