<svg width="41" height="41" viewBox="0 0 41 41" fill="none" xmlns="http://www.w3.org/2000/svg">
<path d="M18.8676 5.26332C19.4133 4.22042 19.8812 3.25553 20.25 2.46423C20.6188 3.25553 21.0867 4.22042 21.6324 5.26332C23.0291 7.93256 24.985 11.2118 27.1366 13.3634C29.2882 15.5149 32.5674 17.4709 35.2367 18.8676C36.2796 19.4133 37.2445 19.8812 38.0358 20.25C37.2445 20.6188 36.2796 21.0867 35.2367 21.6324C32.5674 23.0291 29.2882 24.9851 27.1366 27.1366C24.985 29.2882 23.0291 32.5674 21.6324 35.2367C21.0867 36.2796 20.6188 37.2445 20.25 38.0358C19.8812 37.2445 19.4133 36.2796 18.8676 35.2367C17.4709 32.5674 15.5149 29.2882 13.3634 27.1366C11.2118 24.9851 7.93256 23.0291 5.26332 21.6324C4.22042 21.0867 3.25553 20.6188 2.46423 20.25C3.25553 19.8812 4.22042 19.4133 5.26332 18.8676C7.93256 17.4709 11.2118 15.5149 13.3634 13.3634C15.5149 11.2118 17.4709 7.93256 18.8676 5.26332Z" stroke="black" stroke-width="2"/>
</svg>
