<svg width="125" height="125" viewBox="0 0 125 125" fill="none" xmlns="http://www.w3.org/2000/svg">
<path d="M62.4995 6.20008C63.7023 8.82214 65.3309 12.2354 67.2863 15.9725C71.5924 24.2023 77.5958 34.2563 84.1699 40.8304C90.7439 47.4043 100.797 53.4072 109.027 57.7132C112.763 59.6683 116.176 61.2973 118.798 62.5C116.176 63.7027 112.763 65.3317 109.027 67.2868C100.797 71.5928 90.7439 77.5957 84.1699 84.1696C77.5958 90.7437 71.5924 100.798 67.2863 109.027C65.3309 112.765 63.7023 116.178 62.4995 118.8C61.2968 116.178 59.6688 112.764 57.7134 109.027C53.4074 100.797 47.4045 90.7436 40.8306 84.1696C34.2566 77.5956 24.2025 71.5922 15.9727 67.2861C12.2355 65.3306 8.82172 63.7027 6.19961 62.5C8.82172 61.2973 12.2355 59.6694 15.9727 57.7139C24.2025 53.4078 34.2566 47.4044 40.8306 40.8304C47.4045 34.2564 53.4074 24.2029 57.7134 15.9732C59.6688 12.2361 61.2968 8.82217 62.4995 6.20008Z" stroke="url(#paint0_linear_908_234)" stroke-width="5"/>
<defs>
<linearGradient id="paint0_linear_908_234" x1="31.25" y1="31.25" x2="93.75" y2="93.75" gradientUnits="userSpaceOnUse">
<stop stop-color="#696BF4"/>
<stop offset="1" stop-color="#5184F5"/>
</linearGradient>
</defs>
</svg>
